HIERARCHY
ROOT Hips
{
	OFFSET 0.000000 0.000000 0.000000
	CHANNELS 6 Xposition Yposition Zposition Zrotation Yrotation Xrotation 
	JOINT LeftUpLeg_virtual
	{
		OFFSET 0.000000 0.000000 0.000000
		CHANNELS 3 Zrotation Yrotation Xrotation
		JOINT LeftUpLeg
		{
			OFFSET 8.479694 -4.795517 -0.379053
			CHANNELS 3 Zrotation Yrotation Xrotation
			JOINT LeftLeg
			{
				OFFSET 0.485052 -32.551468 0.112863
				CHANNELS 3 Zrotation Yrotation Xrotation
				JOINT LeftFoot
				{
					OFFSET 0.438033 -32.635670 -3.012641
					CHANNELS 3 Zrotation Yrotation Xrotation
					JOINT LeftToeBase
					{
						OFFSET 0.970169 -13.225353 11.864223
						CHANNELS 3 Zrotation Yrotation Xrotation
						End Site
						{
							OFFSET 0.000000 0.000000 0.000000
						}
					}
				}
			}
		}
	}
	JOINT RightUpLeg_virtual
	{
		OFFSET 0.000000 0.000000 0.000000
		CHANNELS 3 Zrotation Yrotation Xrotation
		JOINT RightUpLeg
		{
			OFFSET -8.479694 -4.795517 -0.379053
			CHANNELS 3 Zrotation Yrotation Xrotation
			JOINT RightLeg
			{
				OFFSET -0.484100 -32.551483 0.112903
				CHANNELS 3 Zrotation Yrotation Xrotation
				JOINT RightFoot
				{
					OFFSET -0.438985 -32.635651 -3.012681
					CHANNELS 3 Zrotation Yrotation Xrotation
					JOINT RightToeBase
					{
						OFFSET -0.970169 -13.225354 11.864223
						CHANNELS 3 Zrotation Yrotation Xrotation
						End Site
						{
							OFFSET 0.000000 0.000000 0.000000
						}
					}
				}
			}
		}
	}
	JOINT Spine_virtual
	{
		OFFSET 0.000000 0.000000 0.000000
		CHANNELS 3 Zrotation Yrotation Xrotation
		JOINT Spine
		{
			OFFSET 0.000000 7.722015 1.166203
			CHANNELS 3 Zrotation Yrotation Xrotation
			JOINT Spine1
			{
				OFFSET 0.000000 12.024086 0.248766
				CHANNELS 3 Zrotation Yrotation Xrotation
				JOINT Spine2
				{
					OFFSET -0.000000 11.503036 -0.491240
					CHANNELS 3 Zrotation Yrotation Xrotation
					JOINT Neck_virtual
					{
						OFFSET 0.000000 0.000000 0.000000
						CHANNELS 3 Zrotation Yrotation Xrotation
						JOINT Neck
						{
							OFFSET 0.000000 18.430687 -3.123054
							CHANNELS 3 Zrotation Yrotation Xrotation
							JOINT Head
							{
								OFFSET -0.000000 9.051071 1.034021
								CHANNELS 3 Zrotation Yrotation Xrotation
								End Site
								{
									OFFSET 0.000000 0.000000 0.000000
								}
							}
						}
					}
					JOINT LeftShoulder_virtual
					{
						OFFSET 0.000000 0.000000 0.000000
						CHANNELS 3 Zrotation Yrotation Xrotation
						JOINT LeftShoulder
						{
							OFFSET 6.197824 13.665230 -4.064723
							CHANNELS 3 Zrotation Yrotation Xrotation
							JOINT LeftArm
							{
								OFFSET 7.778132 -0.187073 -1.709282
								CHANNELS 3 Zrotation Yrotation Xrotation
								JOINT LeftForeArm
								{
									OFFSET 21.954697 0.000000 -2.041093
									CHANNELS 3 Zrotation Yrotation Xrotation
									JOINT LeftHand
									{
										OFFSET 22.992908 0.000000 -0.870901
										CHANNELS 3 Zrotation Yrotation Xrotation
										End Site
										{
											OFFSET 0.000000 0.000000 0.000000
										}
									}
								}
							}
						}
					}
					JOINT RightShoulder_virtual
					{
						OFFSET 0.000000 0.000000 0.000000
						CHANNELS 3 Zrotation Yrotation Xrotation
						JOINT RightShoulder
						{
							OFFSET -6.197824 13.665230 -4.064723
							CHANNELS 3 Zrotation Yrotation Xrotation
							JOINT RightArm
							{
								OFFSET -7.778132 -0.187073 -1.709282
								CHANNELS 3 Zrotation Yrotation Xrotation
								JOINT RightForeArm
								{
									OFFSET -21.954697 0.000000 -2.041093
									CHANNELS 3 Zrotation Yrotation Xrotation
									JOINT RightHand
									{
										OFFSET -22.992908 0.000000 -0.870901
										CHANNELS 3 Zrotation Yrotation Xrotation
										End Site
										{
											OFFSET 0.000000 0.000000 0.000000
										}
									}
								}
							}
						}
					}
				}
			}
		}
	}
}
MOTION
Frames: 14
Frame Time: 0.033333
-11.206683 78.650337 7.666072 -179.188442 29.963398 179.787368 -3.171814 1.477354 10.021439 -9.118367 5.417741 -36.835483 6.935754 7.477941 24.953512 -0.669315 -1.543718 -11.267292 0.000000 0.000000 0.000000 2.217865 -0.840518 10.797134 0.999207 -10.488035 -31.630329 0.571885 2.597414 54.362299 13.416075 10.900342 1.185807 0.000000 0.000000 0.000000 4.841493 2.332582 -2.350241 -1.951979 -1.679914 -1.868144 0.367138 -2.160802 8.075715 -0.038461 -0.273455 -0.007921 -0.513731 -0.540026 10.693787 -3.589925 2.122752 -2.268241 0.000000 0.000000 0.000000 1.040675 0.092647 8.190666 -10.176462 -3.572981 -1.688329 -66.581155 2.748362 -35.446923 4.360822 -47.777002 5.513933 0.000000 0.000000 0.000000 -2.866128 1.489032 7.178791 21.349717 3.974598 4.480604 47.122646 0.333441 -46.820718 -8.600853 42.385005 -9.490317 0.000000 0.000000 0.000000 
-10.735974 78.466606 6.755424 -179.510759 29.819424 179.746250 -2.930125 1.842773 10.293850 -10.068250 5.106546 -36.614680 7.323531 6.911280 25.477470 -0.900065 -1.113513 -12.350418 0.000000 0.000000 0.000000 1.809713 -0.536541 11.057767 0.172571 -10.944386 -34.089911 -0.604839 2.107258 60.143115 10.845325 9.100632 -1.662778 0.000000 0.000000 0.000000 5.049170 2.664980 -2.021292 -1.816483 -1.885968 -1.338906 0.250218 -2.175194 7.782469 -0.038619 -0.214872 -0.054198 -0.586322 -0.524704 10.346009 -3.733711 1.899486 -2.970605 0.000000 0.000000 0.000000 0.929872 0.085708 7.894964 -11.054642 -4.186740 -1.981819 -65.892686 0.827117 -38.888672 4.295718 -38.587243 4.483979 0.000000 0.000000 0.000000 -2.844524 1.449628 6.912087 21.317931 5.145448 4.929484 43.612961 2.429970 -51.269756 -7.819557 34.294376 -7.992415 0.000000 0.000000 0.000000 
-10.182335 78.370430 5.956921 -179.593950 29.579715 179.762151 -2.556228 2.258511 10.625566 -10.627268 4.606624 -36.382075 7.714329 6.429555 26.017512 -1.431760 -1.069971 -13.092444 0.000000 0.000000 0.000000 1.559421 0.307422 11.452309 -0.814255 -10.796399 -36.565565 -1.031471 2.035529 64.567376 9.453204 7.963540 -3.479772 0.000000 0.000000 0.000000 5.434253 3.009071 -1.446459 -1.660771 -2.135816 -0.840930 0.118843 -2.135073 7.377272 -0.113386 -0.113969 -0.067559 -0.545357 -0.499770 10.101659 -3.730342 1.737811 -3.645318 0.000000 0.000000 0.000000 0.934451 0.182003 7.632844 -11.768879 -4.705321 -2.196986 -65.669045 -0.465523 -41.609051 4.097519 -32.274666 3.824262 0.000000 0.000000 0.000000 -2.701188 1.512347 6.761234 21.347517 6.120229 5.295426 41.432003 4.010037 -54.641664 -7.488793 29.065149 -6.928262 0.000000 0.000000 0.000000 
-9.538980 78.414276 5.244048 -179.772614 28.875851 179.738887 -2.310596 2.331405 10.971190 -10.903093 4.171377 -36.156651 7.926070 6.026765 26.360932 -2.084443 -1.232478 -13.249152 0.000000 0.000000 0.000000 1.336945 0.578241 11.871062 -2.211947 -9.775196 -38.702533 -0.992562 2.290612 66.349291 9.187012 7.807155 -4.094015 0.000000 0.000000 0.000000 5.675251 3.242331 -0.864426 -1.725289 -2.430621 -0.403386 0.259357 -2.129221 7.078690 -0.034113 -0.109556 -0.042233 -0.599126 -0.522376 9.795772 -3.564927 1.574306 -4.248666 0.000000 0.000000 0.000000 0.858230 0.220685 7.388729 -12.439408 -5.078297 -2.304798 -66.161010 -0.683389 -43.460214 3.887082 -29.012308 3.403174 0.000000 0.000000 0.000000 -2.725235 1.518263 6.580334 21.483182 6.631667 5.601439 40.672315 4.943777 -56.840076 -7.375244 26.456883 -6.214553 0.000000 0.000000 0.000000 
-8.814721 78.571129 4.579369 -179.811219 27.840763 179.806588 -2.193633 2.201788 11.240561 -10.788952 3.848113 -35.894044 8.194179 5.847710 26.597638 -2.813428 -1.725025 -13.324955 0.000000 0.000000 0.000000 1.284941 0.710443 12.285317 -3.853590 -8.229695 -40.250506 -0.937190 2.559940 65.205002 9.075798 7.496805 -4.703096 0.000000 0.000000 0.000000 5.862335 3.400498 -0.443698 -1.853520 -2.700851 -0.028270 0.385241 -2.107599 6.882773 -0.054036 -0.143580 -0.031529 -0.400177 -0.391642 9.717684 -3.242897 1.399524 -4.669327 0.000000 0.000000 0.000000 1.057229 0.271693 7.238497 -12.993368 -5.274157 -2.333224 -67.381531 0.004416 -44.470508 3.741255 -28.345960 3.106672 0.000000 0.000000 0.000000 -2.527005 1.540850 6.459355 21.664330 6.734859 5.766225 41.280878 5.212490 -58.013687 -7.341200 25.848132 -5.797337 0.000000 0.000000 0.000000 
-8.094116 78.790962 3.916897 -179.754337 26.702088 179.856749 -2.146362 2.026236 11.454635 -10.493798 3.678176 -35.573828 8.401365 5.747322 26.785184 -3.427449 -2.375952 -13.089099 0.000000 0.000000 0.000000 1.346620 0.678307 12.581801 -5.424614 -6.058804 -41.116619 -0.977863 2.871876 61.329553 9.089625 7.001984 -4.916828 0.000000 0.000000 0.000000 5.957304 3.534499 -0.163600 -2.029551 -2.926145 0.343538 0.536321 -2.032965 6.720658 -0.050394 -0.148736 -0.065371 -0.134533 -0.400138 9.803062 -2.805286 1.105963 -5.005426 0.000000 0.000000 0.000000 1.323056 0.211212 7.247891 -13.504076 -5.327891 -2.318207 -68.922032 1.218053 -44.913931 3.591713 -29.209949 2.928057 0.000000 0.000000 0.000000 -2.317067 1.583021 6.475639 21.974290 6.462546 5.867663 42.634341 4.782799 -58.222349 -7.431301 26.031658 -5.558906 0.000000 0.000000 0.000000 
-7.381057 78.990524 3.274475 -179.795058 25.372874 179.898864 -2.278631 1.810642 11.561078 -10.099666 3.464813 -35.160209 8.477881 5.549714 27.132310 -3.830100 -3.110665 -12.957394 0.000000 0.000000 0.000000 1.366705 0.638142 12.634002 -6.729615 -3.595384 -41.446940 -1.045357 3.173124 55.721950 9.319150 6.477427 -4.923245 0.000000 0.000000 0.000000 5.828248 3.547829 -0.145845 -2.397928 -3.174220 0.659206 0.853811 -1.988189 6.680969 -0.056740 -0.201482 -0.051848 0.141468 -0.282440 9.851892 -2.328772 0.962221 -5.308579 0.000000 0.000000 0.000000 1.544050 0.400557 7.300264 -13.867019 -5.492937 -2.286415 -70.189141 2.370728 -44.941958 3.503918 -30.533169 2.665153 0.000000 0.000000 0.000000 -2.116974 1.730606 6.563730 22.311870 6.045248 5.846262 44.192840 3.965817 -58.234336 -7.393493 26.290756 -5.476072 0.000000 0.000000 0.000000 
-6.634152 79.130142 2.653063 -179.742903 24.042650 -179.919532 -2.341234 1.732096 11.465610 -9.518430 3.184577 -34.832329 8.567800 5.274391 27.768679 -3.969342 -3.924486 -13.260086 0.000000 0.000000 0.000000 1.533846 0.627117 12.444342 -7.449690 -1.018563 -41.346253 -1.429594 3.319545 49.027344 10.053914 5.797926 -7.606643 0.000000 0.000000 0.000000 5.735467 3.600290 -0.358916 -2.756852 -3.324175 0.914867 1.040033 -1.850583 6.718034 -0.043919 -0.149822 -0.022969 0.373100 -0.195692 9.971245 -1.781946 0.918481 -5.586833 0.000000 0.000000 0.000000 1.729455 0.508935 7.429550 -14.036883 -5.712348 -2.251646 -70.740351 3.012114 -44.851632 3.390733 -31.404161 2.432994 0.000000 0.000000 0.000000 -1.936095 1.875448 6.693158 22.684201 5.595926 5.795250 45.319080 2.929146 -58.166922 -7.270450 26.114854 -5.029425 0.000000 0.000000 0.000000 
-5.809786 79.202873 2.054750 -179.832433 22.757987 -179.869166 -2.460145 1.602688 11.322728 -8.836727 2.779327 -34.525377 8.622462 4.850992 28.763013 -3.865785 -4.745587 -14.056705 0.000000 0.000000 0.000000 1.683207 0.462584 12.126313 -7.700623 1.232427 -41.114781 -2.284224 2.894725 42.802770 10.731298 4.893395 -9.100416 0.000000 0.000000 0.000000 5.533323 3.491642 -0.699941 -3.212753 -3.438493 1.161985 1.129656 -1.756701 6.834721 -0.032115 0.094887 0.017244 0.439499 -0.114202 10.077322 -1.335491 0.726400 -5.824101 0.000000 0.000000 0.000000 1.832440 0.782238 7.517517 -14.030667 -6.070133 -2.331376 -70.579022 3.412195 -44.732114 3.346469 -31.620750 2.087768 0.000000 0.000000 0.000000 -1.850914 2.078867 6.924219 23.028681 5.279559 5.653392 45.774579 2.008548 -58.327118 -7.080076 25.382870 -4.566154 0.000000 0.000000 0.000000 
-4.878625 79.227577 1.492096 -179.945172 21.437112 179.992137 -2.548471 1.480178 11.354009 -8.127681 2.258710 -34.201964 8.508658 4.410266 29.855457 -3.649030 -5.539569 -14.906884 0.000000 0.000000 0.000000 1.637855 0.494193 11.638198 -7.771762 3.406062 -40.788831 -2.210070 3.898474 38.956763 9.591509 3.761225 -9.349420 0.000000 0.000000 0.000000 5.438004 3.418438 -1.073373 -3.658524 -3.375952 1.410654 1.131696 -1.509139 6.992077 -0.028288 -0.025728 -0.019826 0.503327 0.097630 10.328749 -0.900666 0.352776 -6.051785 0.000000 0.000000 0.000000 1.923509 0.951209 7.691562 -13.864080 -6.371424 -2.374099 -69.899528 3.593312 -44.627817 3.203299 -31.398837 1.791358 0.000000 0.000000 0.000000 -1.860720 2.308971 7.204382 23.425099 5.008719 5.549017 45.571866 1.266036 -58.794787 -6.808624 24.346938 -4.046905 0.000000 0.000000 0.000000 
-3.911033 79.271393 0.946201 -179.914150 19.538099 179.932837 -2.580493 1.052376 11.297870 -7.215864 1.450711 -33.840739 8.442180 3.911260 30.836945 -3.477158 -6.308005 -15.509731 0.000000 0.000000 0.000000 1.079544 0.102931 11.369967 -8.040171 6.255512 -40.216140 -2.184403 5.240663 36.749560 9.190049 2.851970 -9.565600 0.000000 0.000000 0.000000 5.532679 3.120057 -1.625821 -3.985454 -3.325888 1.559652 1.091682 -1.444467 7.150316 -0.025124 -0.061851 0.000897 0.488115 0.152104 10.422187 -0.457164 0.199137 -6.371553 0.000000 0.000000 0.000000 1.843959 0.918434 7.952975 -13.657432 -6.682879 -2.468935 -68.988660 3.757092 -44.832501 2.982829 -31.170951 1.721537 0.000000 0.000000 0.000000 -1.958353 2.218986 7.361235 23.790392 4.804307 5.390717 44.999602 0.468403 -59.227931 -6.634821 23.351331 -3.636047 0.000000 0.000000 0.000000 
-2.962527 79.367485 0.412443 -179.784294 17.372275 179.993953 -2.616882 0.493724 11.067219 -6.232478 0.551244 -33.302862 8.333715 3.312876 31.553910 -3.453097 -7.048727 -15.934087 0.000000 0.000000 0.000000 0.394522 -1.069449 11.289048 -8.729223 9.694034 -39.611788 -2.129790 6.281730 35.569375 9.480869 2.853653 -9.789304 0.000000 0.000000 0.000000 5.706830 2.646036 -2.336340 -4.197492 -3.435484 1.542220 1.069728 -1.510201 7.325253 -0.057211 -0.150101 0.032522 0.405308 0.125503 10.703334 -0.216909 -0.014578 -6.369955 0.000000 0.000000 0.000000 1.753372 0.887753 8.035338 -13.614127 -6.765419 -2.471473 -68.005714 4.169942 -44.853883 2.887527 -31.448257 1.242145 0.000000 0.000000 0.000000 -2.035936 2.146786 7.442907 24.197552 4.658905 5.253203 44.258475 -0.075556 -59.460471 -6.489346 22.571642 -3.348880 0.000000 0.000000 0.000000 
-2.060650 79.497597 -0.053851 -179.495746 15.423737 -179.735554 -2.597450 0.152169 10.745450 -5.270668 -0.214849 -32.831210 8.209544 2.716993 32.065973 -3.600811 -7.713141 -16.313231 0.000000 0.000000 0.000000 -0.066920 -0.219941 11.388312 -8.744437 10.800519 -38.676400 -2.045434 7.293790 34.806494 10.536531 3.845042 -9.889899 0.000000 0.000000 0.000000 5.904762 2.147317 -3.047736 -4.261783 -3.686147 1.425255 1.100822 -1.544989 7.413466 -0.073722 -0.240270 -0.009232 0.426038 0.147930 10.860706 0.002407 -0.214582 -6.715270 0.000000 0.000000 0.000000 1.738626 0.860264 8.254370 -13.683335 -6.681616 -2.476494 -67.199287 4.810421 -45.015683 2.900499 -32.156063 0.837542 0.000000 0.000000 0.000000 -2.061027 2.134208 7.710222 24.531302 4.524837 5.131003 43.492568 -0.306557 -59.551484 -6.395088 22.159097 -3.143484 0.000000 0.000000 0.000000 
-1.190490 79.638145 -0.465735 -179.230680 14.163521 -179.414685 -2.551816 0.318425 10.569897 -4.396233 -0.533715 -32.303445 8.054372 2.372670 31.800849 -3.749659 -8.049757 -16.677736 0.000000 0.000000 0.000000 -0.509163 0.276746 11.437352 -8.575010 11.468005 -37.710342 -2.162607 7.994048 33.636189 11.374767 4.718702 -9.927928 0.000000 0.000000 0.000000 5.946992 2.365061 -3.557569 -4.209323 -3.600928 1.151309 1.230965 -1.695416 7.536110 -0.097262 -0.290625 0.054348 0.466324 0.238165 11.032860 0.048089 -0.372227 -6.696771 0.000000 0.000000 0.000000 1.782954 0.726665 8.470213 -13.846805 -6.787431 -2.486551 -66.427927 5.410730 -45.010772 2.646521 -33.236718 0.798948 0.000000 0.000000 0.000000 -2.019265 2.086527 7.791629 24.859532 4.287706 5.178071 42.969622 -0.265846 -59.170967 -6.236056 22.030929 -2.989334 0.000000 0.000000 0.000000 
